<?xml version="1.0" standalone="no"?>
<!DOCTYPE svg PUBLIC "-//W3C//DTD SVG 20010904//EN"
 "http://www.w3.org/TR/2001/REC-SVG-20010904/DTD/svg10.dtd">
<svg version="1.0" xmlns="http://www.w3.org/2000/svg"
 width="117.000000pt" height="117.000000pt" viewBox="0 0 117.000000 117.000000"
 preserveAspectRatio="xMidYMid meet">
<metadata>
Created by potrace 1.11, written by Peter Selinger 2001-2013
</metadata>
<g transform="translate(0.000000,117.000000) scale(0.100000,-0.100000)"
fill="#000000" stroke="none">
<path d="M471 1114 c-30 -8 -60 -13 -67 -10 -6 2 -16 0 -21 -5 -5 -5 -20 -12
-33 -14 -13 -3 -34 -16 -46 -30 -12 -14 -26 -25 -32 -25 -10 0 -22 -24 -22
-43 0 -4 -6 -20 -14 -35 -18 -35 -38 -135 -38 -184 1 -21 -3 -38 -9 -38 -5 0
-9 -14 -9 -32 0 -17 -8 -40 -17 -50 -16 -18 -16 -25 0 -120 21 -120 28 -136
64 -140 24 -3 31 -12 56 -78 16 -41 32 -92 37 -114 9 -43 13 -47 90 -78 46
-19 74 -23 170 -22 103 0 122 3 186 28 78 32 68 15 112 186 18 71 20 75 45 72
29 -4 27 -8 45 113 10 68 7 125 -8 135 -6 4 -27 156 -33 233 -1 9 -5 17 -10
17 -4 0 -5 5 -2 10 3 6 2 10 -2 10 -5 0 -17 17 -28 38 -11 20 -32 51 -48 67
-15 17 -33 42 -39 57 -14 32 -16 33 -104 53 -80 19 -152 18 -223 -1z"/>
</g>
</svg>
